<svg width="48" height="48" viewBox="0 0 48 48" fill="none" xmlns="http://www.w3.org/2000/svg">
<path d="M0 16C0 7.16344 7.16344 0 16 0H32C40.8366 0 48 7.16344 48 16V32C48 40.8366 40.8366 48 32 48H16C7.16344 48 0 40.8366 0 32V16Z" fill="#1C2433"/>
<path d="M21 22C21.0104 21.2076 21.3298 20.4506 21.8901 19.8902C22.4505 19.3298 23.2076 19.0104 24 19C24.7924 19.0104 25.5495 19.3298 26.1099 19.8902C26.6702 20.4506 26.9896 21.2076 27 22C26.9896 22.7925 26.6702 23.5495 26.1099 24.1099C25.5495 24.6703 24.7924 24.9897 24 25C23.2076 24.9897 22.4505 24.6703 21.8901 24.1099C21.3298 23.5495 21.0104 22.7925 21 22ZM24 31L28 32V28.92C26.7937 29.6465 25.408 30.0206 24 30C22.592 30.0206 21.2063 29.6465 20 28.92V32M24 16C23.212 15.9857 22.4293 16.1326 21.7002 16.4318C20.971 16.7311 20.3108 17.1762 19.76 17.74C19.1901 18.2914 18.7398 18.9541 18.437 19.687C18.1342 20.4199 17.9855 21.2072 18 22C17.9896 22.7878 18.1403 23.5695 18.443 24.2969C18.7457 25.0243 19.1938 25.6821 19.76 26.23C20.3082 26.7993 20.9673 27.25 21.6966 27.5544C22.4258 27.8589 23.2098 28.0105 24 28C24.7902 28.0105 25.5742 27.8589 26.3034 27.5544C27.0327 27.25 27.6918 26.7993 28.24 26.23C28.8062 25.6821 29.2543 25.0243 29.557 24.2969C29.8597 23.5695 30.0104 22.7878 30 22C30.0145 21.2072 29.8658 20.4199 29.563 19.687C29.2602 18.9541 28.8099 18.2914 28.24 17.74C27.6892 17.1762 27.029 16.7311 26.2998 16.4318C25.5707 16.1326 24.788 15.9857 24 16ZM32 22C31.9787 22.9599 31.7857 23.9082 31.43 24.8C31.1096 25.7075 30.6248 26.5481 30 27.28V35L24 33L18 35V27.28C16.7057 25.8265 15.9935 23.9463 16 22C15.9824 20.9506 16.18 19.9087 16.5808 18.9387C16.9815 17.9686 17.5769 17.091 18.33 16.36C19.0637 15.6001 19.9454 14.9987 20.9206 14.5928C21.8958 14.1869 22.9438 13.9851 24 14C25.0562 13.9851 26.1042 14.1869 27.0794 14.5928C28.0546 14.9987 28.9363 15.6001 29.67 16.36C30.4231 17.091 31.0185 17.9686 31.4192 18.9387C31.82 19.9087 32.0176 20.9506 32 22Z" fill="white"/>
</svg>
