<svg width="24" height="24" viewBox="0 0 24 24" fill="none" xmlns="http://www.w3.org/2000/svg">
<path d="M19 8.99997V6.53519C19 5.6629 18.4366 4.88252 17.5898 4.67303C15.7629 4.22105 13.8856 3.99456 12 3.99997C10.1144 3.99456 8.23707 4.22105 6.41018 4.67303C5.56342 4.88252 5 5.6629 5 6.53519V8.99997C4.44772 8.99997 4 9.44769 4 9.99997V11.1715C4 11.702 4.21071 12.2107 4.58579 12.5858L5 13V19C5 19.5523 5.44772 20 6 20C6.26522 20 6.51957 19.8946 6.70711 19.7071C6.89464 19.5195 7 19.2652 7 19H17C17 19.2652 17.1054 19.5195 17.2929 19.7071C17.4804 19.8946 17.7348 20 18 20C18.5523 20 19 19.5523 19 19V13L19.4142 12.5858C19.7893 12.2107 20 11.702 20 11.1715V9.99997C20 9.44769 19.5523 8.99997 19 8.99997ZM10 5.99997H14V6.99997H10V5.99997ZM8 17C7.80222 17 7.60888 16.9413 7.44443 16.8314C7.27998 16.7216 7.15181 16.5654 7.07612 16.3827C7.00043 16.1999 6.98063 15.9989 7.01921 15.8049C7.0578 15.6109 7.15304 15.4327 7.29289 15.2929C7.43275 15.153 7.61093 15.0578 7.80491 15.0192C7.99889 14.9806 8.19996 15.0004 8.38268 15.0761C8.56541 15.1518 8.72159 15.28 8.83147 15.4444C8.94135 15.6089 9 15.8022 9 16C9 16.2652 8.89464 16.5195 8.70711 16.7071C8.51957 16.8946 8.26522 17 8 17ZM16 17C15.8022 17 15.6089 16.9413 15.4444 16.8314C15.28 16.7216 15.1518 16.5654 15.0761 16.3827C15.0004 16.1999 14.9806 15.9989 15.0192 15.8049C15.0578 15.6109 15.153 15.4327 15.2929 15.2929C15.4327 15.153 15.6109 15.0578 15.8049 15.0192C15.9989 14.9806 16.2 15.0004 16.3827 15.0761C16.5654 15.1518 16.7216 15.28 16.8315 15.4444C16.9414 15.6089 17 15.8022 17 16C17 16.2652 16.8946 16.5195 16.7071 16.7071C16.5196 16.8946 16.2652 17 16 17ZM17 12C17 12.2652 16.8946 12.5195 16.7071 12.7071C16.5196 12.8946 16.2652 13 16 13H8C7.73478 13 7.48043 12.8946 7.29289 12.7071C7.10536 12.5195 7 12.2652 7 12V7.99997H17V12Z" fill="#428793"/>
</svg>
