<svg width="24" height="24" viewBox="0 0 24 24" fill="none" xmlns="http://www.w3.org/2000/svg">
<path d="M18 2C20.2091 2 22 3.79086 22 6V18C22 20.2091 20.2091 22 18 22H6C3.79086 22 2 20.2091 2 18V6C2 3.79086 3.79086 2 6 2H18Z" fill="#D9D9D9"/>
<path d="M12 3.99988C13.8856 3.99446 15.763 4.22076 17.5898 4.67273C18.4366 4.88221 18.9999 5.66279 19 6.53503V8.99988C19.5523 8.99988 20 9.44762 20 9.99988V11.1718C19.9999 11.7021 19.7891 12.2108 19.4141 12.5858L19 12.9999V18.9999C19 19.5522 18.5523 19.9999 18 19.9999C17.7348 19.9999 17.4805 19.8944 17.293 19.7069C17.1055 19.5194 17 19.2651 17 18.9999H7C7 19.2651 6.89455 19.5194 6.70703 19.7069C6.51949 19.8944 6.26522 19.9999 6 19.9999C5.44772 19.9999 5 19.5522 5 18.9999V12.9999L4.58594 12.5858C4.21092 12.2108 4.00006 11.7021 4 11.1718V9.99988C4.00004 9.44762 4.44774 8.99988 5 8.99988V6.53503C5.00006 5.66279 5.56343 4.88221 6.41016 4.67273C8.23703 4.22076 10.1144 3.99446 12 3.99988ZM7.80469 15.0194C7.61082 15.058 7.43275 15.1531 7.29297 15.2928C7.1532 15.4326 7.05816 15.6107 7.01953 15.8046C6.98095 15.9985 7.00048 16.2 7.07617 16.3827C7.15182 16.5653 7.28005 16.7211 7.44434 16.8309C7.60879 16.9408 7.80222 16.9999 8 16.9999C8.26522 16.9999 8.5195 16.8944 8.70703 16.7069C8.89455 16.5194 9 16.2651 9 15.9999C8.99999 15.8021 8.94092 15.6086 8.83105 15.4442C8.7212 15.2799 8.56538 15.1517 8.38281 15.076C8.20009 15.0004 7.99867 14.9808 7.80469 15.0194ZM15.8047 15.0194C15.6108 15.058 15.4328 15.1531 15.293 15.2928C15.1532 15.4326 15.0582 15.6107 15.0195 15.8046C14.9809 15.9985 15.0005 16.2 15.0762 16.3827C15.1518 16.5653 15.28 16.7211 15.4443 16.8309C15.6088 16.9408 15.8022 16.9999 16 16.9999C16.2652 16.9999 16.5195 16.8944 16.707 16.7069C16.8945 16.5194 17 16.2651 17 15.9999C17 15.8021 16.9409 15.6086 16.8311 15.4442C16.7212 15.2799 16.5654 15.1517 16.3828 15.076C16.2001 15.0004 15.9987 14.9808 15.8047 15.0194ZM7 7.99988V11.9999C7 12.2651 7.10545 12.5194 7.29297 12.7069C7.48051 12.8944 7.73478 12.9999 8 12.9999H16C16.2652 12.9999 16.5195 12.8944 16.707 12.7069C16.8945 12.5194 17 12.2651 17 11.9999V7.99988H7ZM10 5.99988V6.99988H14V5.99988H10Z" fill="#428793"/>
</svg>
