<svg width="24" height="24" viewBox="0 0 24 24" fill="none" xmlns="http://www.w3.org/2000/svg">
<path d="M12 7.75C13.0609 7.75 14.0783 8.17143 14.8284 8.92157C15.5786 9.67172 16 10.6891 16 11.75C16 12.8109 15.5786 13.8283 14.8284 14.5784C14.0783 15.3286 13.0609 15.75 12 15.75C10.9391 15.75 9.92171 15.3286 9.17156 14.5784C8.42142 13.8283 7.99999 12.8109 7.99999 11.75C7.99999 10.6891 8.42142 9.67172 9.17156 8.92157C9.92171 8.17143 10.9391 7.75 12 7.75ZM12 9.75C11.4696 9.75 10.9609 9.96071 10.5858 10.3358C10.2107 10.7109 9.99999 11.2196 9.99999 11.75C9.99999 12.2804 10.2107 12.7891 10.5858 13.1642C10.9609 13.5393 11.4696 13.75 12 13.75C12.5304 13.75 13.0391 13.5393 13.4142 13.1642C13.7893 12.7891 14 12.2804 14 11.75C14 11.2196 13.7893 10.7109 13.4142 10.3358C13.0391 9.96071 12.5304 9.75 12 9.75ZM9.99999 21.75C9.74999 21.75 9.53999 21.57 9.49999 21.33L9.12999 18.68C8.49999 18.43 7.95999 18.09 7.43999 17.69L4.94999 18.7C4.72999 18.78 4.45999 18.7 4.33999 18.48L2.33999 15.02C2.20999 14.8 2.26999 14.53 2.45999 14.38L4.56999 12.72L4.49999 11.75L4.56999 10.75L2.45999 9.12C2.26999 8.97 2.20999 8.7 2.33999 8.48L4.33999 5.02C4.45999 4.8 4.72999 4.71 4.94999 4.8L7.43999 5.8C7.95999 5.41 8.49999 5.07 9.12999 4.82L9.49999 2.17C9.53999 1.93 9.74999 1.75 9.99999 1.75H14C14.25 1.75 14.46 1.93 14.5 2.17L14.87 4.82C15.5 5.07 16.04 5.41 16.56 5.8L19.05 4.8C19.27 4.71 19.54 4.8 19.66 5.02L21.66 8.48C21.79 8.7 21.73 8.97 21.54 9.12L19.43 10.75L19.5 11.75L19.43 12.75L21.54 14.38C21.73 14.53 21.79 14.8 21.66 15.02L19.66 18.48C19.54 18.7 19.27 18.79 19.05 18.7L16.56 17.7C16.04 18.09 15.5 18.43 14.87 18.68L14.5 21.33C14.46 21.57 14.25 21.75 14 21.75H9.99999ZM11.25 3.75L10.88 6.36C9.67999 6.61 8.61999 7.25 7.84999 8.14L5.43999 7.1L4.68999 8.4L6.79999 9.95C6.39999 11.12 6.39999 12.39 6.79999 13.55L4.67999 15.11L5.42999 16.41L7.85999 15.37C8.62999 16.25 9.67999 16.89 10.87 17.13L11.24 19.75H12.76L13.13 17.14C14.32 16.89 15.37 16.25 16.14 15.37L18.57 16.41L19.32 15.11L17.2 13.56C17.6 12.39 17.6 11.12 17.2 9.95L19.31 8.4L18.56 7.1L16.15 8.14C15.38 7.25 14.32 6.61 13.12 6.37L12.75 3.75H11.25Z" fill="white"/>
</svg>
