<svg width="24" height="24" viewBox="0 0 24 24" fill="none" xmlns="http://www.w3.org/2000/svg">
<path fill-rule="evenodd" clip-rule="evenodd" d="M17.238 11.529C17.496 11.7345 17.5395 12.1125 17.337 12.372C17.2423 12.4936 17.1039 12.5735 16.9513 12.5948C16.7987 12.6161 16.6438 12.577 16.5195 12.486L14.4945 11.004L14.544 10.7175L14.6385 10.1655L14.6625 10.023L14.679 9.7935L14.703 9.5025L14.724 9.2535L17.238 11.529ZM15.51 15.3495L16.842 20.0835C16.8944 20.2665 16.8722 20.4628 16.7803 20.6295C16.6884 20.7962 16.5342 20.9197 16.3515 20.973C16.1776 21.0215 15.9919 21.0023 15.8316 20.9194C15.6713 20.8365 15.5483 20.6959 15.4875 20.526L13.896 16.113L11.2185 13.4055C11.1005 13.2845 11.0136 13.1366 10.9653 12.9747C10.9169 12.8127 10.9086 12.6414 10.941 12.4755L11.5125 9.1845L10.2255 9.57L9.09296 12.234C9.06296 12.3064 9.01891 12.3721 8.96335 12.4273C8.9078 12.4825 8.84185 12.5262 8.76931 12.5558C8.69677 12.5853 8.61909 12.6002 8.54076 12.5996C8.46243 12.5989 8.385 12.5828 8.31296 12.552C8.1709 12.4906 8.05789 12.377 7.9973 12.2346C7.93671 12.0922 7.93318 11.9319 7.98746 11.787L9.13196 8.7795C9.18536 8.63631 9.29017 8.51813 9.42596 8.448L9.49796 8.4105L12.3615 6.933L12.3945 6.918C12.5686 6.82364 12.7701 6.79287 12.9645 6.831C13.221 6.8805 13.443 7.029 13.551 7.254C13.6605 7.4805 13.698 7.896 13.698 7.896C13.761 8.2665 13.764 8.628 13.7955 8.9925C13.818 9.357 13.8165 9.717 13.809 10.077C13.7895 10.7955 13.743 11.5095 13.6485 12.2175L13.596 12.636L15.3405 15.042L15.4065 15.132C15.4543 15.1976 15.4884 15.2713 15.51 15.3495ZM15.0855 4.5C15.0855 5.328 14.421 6 13.6005 6C13.4042 5.99941 13.21 5.96012 13.0289 5.88438C12.8479 5.80865 12.6836 5.69794 12.5454 5.55862C12.4071 5.41929 12.2978 5.25407 12.2235 5.07242C12.1492 4.89077 12.1115 4.69625 12.1125 4.5C12.1125 3.672 12.7785 3 13.599 3C14.421 3 15.0855 3.672 15.0855 4.5ZM11.601 15.0075C11.955 15.3345 12.3165 15.648 12.633 15.903L12.273 16.6635L9.85796 20.655C9.80974 20.7356 9.74598 20.8059 9.67039 20.8617C9.59481 20.9175 9.50889 20.9577 9.41762 20.9801C9.32636 21.0024 9.23157 21.0064 9.13876 20.9918C9.04594 20.9772 8.95696 20.9443 8.87696 20.895C8.72372 20.7989 8.61179 20.6492 8.56298 20.475C8.51417 20.3008 8.53198 20.1147 8.61296 19.953L10.626 15.9615C10.659 15.6435 10.686 15.3255 10.728 15.009L10.833 14.274L10.9605 14.3985C11.1585 14.5995 11.3805 14.8035 11.601 15.0075Z" fill="white"/>
</svg>
