<svg width="24" height="24" viewBox="0 0 24 24" fill="none" xmlns="http://www.w3.org/2000/svg">
<path d="M9 9.99998C9.01036 9.20755 9.32976 8.45049 9.89014 7.89011C10.4505 7.32973 11.2076 7.01034 12 6.99998C12.7924 7.01034 13.5495 7.32973 14.1099 7.89011C14.6702 8.45049 14.9896 9.20755 15 9.99998C14.9896 10.7924 14.6702 11.5495 14.1099 12.1098C13.5495 12.6702 12.7924 12.9896 12 13C11.2076 12.9896 10.4505 12.6702 9.89014 12.1098C9.32976 11.5495 9.01036 10.7924 9 9.99998ZM12 19L16 20V16.92C14.7937 17.6464 13.408 18.0206 12 18C10.592 18.0206 9.20632 17.6464 8 16.92V20M12 3.99998C11.212 3.9856 10.4293 4.13254 9.70017 4.43177C8.97102 4.73099 8.31076 5.17619 7.76 5.73998C7.19011 6.29134 6.73977 6.95408 6.43699 7.68695C6.13421 8.41982 5.98546 9.20715 6 9.99998C5.98958 10.7878 6.14033 11.5694 6.44299 12.2968C6.74565 13.0242 7.19383 13.6821 7.76 14.23C8.3082 14.7992 8.96729 15.2499 9.69657 15.5544C10.4258 15.8588 11.2098 16.0105 12 16C12.7902 16.0105 13.5742 15.8588 14.3034 15.5544C15.0327 15.2499 15.6918 14.7992 16.24 14.23C16.8062 13.6821 17.2543 13.0242 17.557 12.2968C17.8597 11.5694 18.0104 10.7878 18 9.99998C18.0145 9.20715 17.8658 8.41982 17.563 7.68695C17.2602 6.95408 16.8099 6.29134 16.24 5.73998C15.6892 5.17619 15.029 4.73099 14.2998 4.43177C13.5707 4.13254 12.788 3.9856 12 3.99998ZM20 9.99998C19.9787 10.9599 19.7857 11.9082 19.43 12.8C19.1096 13.7074 18.6248 14.5481 18 15.28V23L12 21L6 23V15.28C4.70569 13.8264 3.9935 11.9463 4 9.99998C3.98237 8.95056 4.18004 7.90867 4.58078 6.93862C4.98153 5.96858 5.57685 5.09097 6.33 4.35998C7.0637 3.60007 7.94536 2.99861 8.92056 2.59271C9.89576 2.1868 10.9438 1.98508 12 1.99998C13.0562 1.98508 14.1042 2.1868 15.0794 2.59271C16.0546 2.99861 16.9363 3.60007 17.67 4.35998C18.4231 5.09097 19.0185 5.96858 19.4192 6.93862C19.82 7.90867 20.0176 8.95056 20 9.99998Z" fill="white"/>
</svg>
