<svg width="24" height="24" viewBox="0 0 24 24" fill="none" xmlns="http://www.w3.org/2000/svg">
<path fill-rule="evenodd" clip-rule="evenodd" d="M22 12C22 13.9778 21.4135 15.9112 20.3147 17.5557C19.2159 19.2002 17.6541 20.4819 15.8268 21.2388C13.9996 21.9957 11.9889 22.1937 10.0491 21.8079C8.10929 21.422 6.32746 20.4696 4.92894 19.0711C3.53041 17.6725 2.578 15.8907 2.19215 13.9509C1.8063 12.0111 2.00433 10.0004 2.76121 8.17317C3.51809 6.3459 4.79981 4.78412 6.4443 3.6853C8.08879 2.58649 10.0222 2 12 2C12.5523 2 13 2.44772 13 3C13 3.55228 12.5523 4 12 4C10.4165 4 8.8686 4.46332 7.55198 5.34306C6.23536 6.22279 5.20918 7.4732 4.6032 8.93614C3.99723 10.3991 3.83868 12.0089 4.1476 13.5619C4.45653 15.115 5.21905 16.5416 6.33874 17.6613C7.45843 18.781 8.88501 19.5435 10.4381 19.8524C11.9911 20.1613 13.6009 20.0028 15.0639 19.3968C16.5268 18.7908 17.7772 17.7646 18.6569 16.448C19.5367 15.1314 20 13.5835 20 12C20 11.4477 20.4477 11 21 11C21.5523 11 22 11.4477 22 12Z" fill="#41A69C"/>
</svg>
