<svg width="24" height="24" viewBox="0 0 24 24" fill="none" xmlns="http://www.w3.org/2000/svg">
<path d="M18.59 10L18.1831 7.24153C18.0712 6.48238 17.5365 5.84681 16.7928 5.65768C16.434 5.56643 16.0729 5.48384 15.71 5.41L15.2771 4.55025C15.1072 4.21286 14.7617 4 14.3839 4H9.61608C9.23833 4 8.89281 4.21286 8.72292 4.55025L8.29 5.41C7.92818 5.48362 7.56825 5.56592 7.21052 5.65684C6.46509 5.84629 5.92979 6.48418 5.81942 7.24535L5.42 10H5C4.44772 10 4 10.4477 4 11V11.5858C4 11.851 4.10536 12.1054 4.29289 12.2929L5 13V18C5 19.1046 5.89543 20 7 20C7.26522 20 7.51957 19.8946 7.70711 19.7071C7.89464 19.5196 8 19.2652 8 19H16C16 19.2652 16.1054 19.5196 16.2929 19.7071C16.4804 19.8946 16.7348 20 17 20C18.1046 20 19 19.1046 19 18V13L19.7071 12.2929C19.8946 12.1054 20 11.851 20 11.5858V11C20 10.4477 19.5523 10 19 10H18.59ZM7.69551 8.23443C7.75266 7.83253 8.0466 7.50261 8.44347 7.41727C9.61258 7.16586 10.8034 7.02605 12 7C13.1978 7.0255 14.3899 7.16548 15.5601 7.41775C15.9551 7.50293 16.2482 7.83062 16.3069 8.23049L16.692 10.8548C16.7805 11.4584 16.3126 12 15.7026 12H8.31227C7.70398 12 7.23659 11.4614 7.32223 10.8592L7.69551 8.23443ZM8 17C7.80222 17 7.60888 16.9414 7.44443 16.8315C7.27998 16.7216 7.15181 16.5654 7.07612 16.3827C7.00043 16.2 6.98063 15.9989 7.01921 15.8049C7.0578 15.6109 7.15304 15.4327 7.29289 15.2929C7.43275 15.153 7.61093 15.0578 7.80491 15.0192C7.99889 14.9806 8.19996 15.0004 8.38268 15.0761C8.56541 15.1518 8.72159 15.28 8.83147 15.4444C8.94135 15.6089 9 15.8022 9 16C9 16.2652 8.89464 16.5196 8.70711 16.7071C8.51957 16.8946 8.26522 17 8 17ZM16 17C15.8022 17 15.6089 16.9414 15.4444 16.8315C15.28 16.7216 15.1518 16.5654 15.0761 16.3827C15.0004 16.2 14.9806 15.9989 15.0192 15.8049C15.0578 15.6109 15.153 15.4327 15.2929 15.2929C15.4327 15.153 15.6109 15.0578 15.8049 15.0192C15.9989 14.9806 16.2 15.0004 16.3827 15.0761C16.5654 15.1518 16.7216 15.28 16.8315 15.4444C16.9414 15.6089 17 15.8022 17 16C17 16.2652 16.8946 16.5196 16.7071 16.7071C16.5196 16.8946 16.2652 17 16 17Z" fill="#D8990F"/>
</svg>
