<svg width="24" height="24" viewBox="0 0 24 24" fill="none" xmlns="http://www.w3.org/2000/svg">
<path d="M15.2881 1.7627C15.4191 1.36974 15.8443 1.1571 16.2373 1.28809C16.6303 1.41907 16.8429 1.84435 16.7119 2.2373L16.0098 4.3418C16.5398 4.43406 17.067 4.54351 17.5898 4.67285C18.4366 4.88234 19 5.66288 19 6.53516V9C19.5523 9 20 9.44772 20 10V11.5859C20 11.8511 19.8945 12.1055 19.707 12.293L19 13V19C19 19.5523 18.5523 20 18 20C17.7348 20 17.4805 19.8946 17.293 19.707C17.1054 19.5195 17 19.2652 17 19H7C6.99999 19.2652 6.89456 19.5195 6.70703 19.707C6.5195 19.8946 6.26521 20 6 20C5.44772 20 5.00001 19.5523 5 19V13L4.29297 12.293C4.10547 12.1055 4.00005 11.8511 4 11.5859V10C4 9.44772 4.44772 9 5 9V6.53516C5.00002 5.66288 5.5634 4.88234 6.41016 4.67285C6.73501 4.59248 7.06185 4.52115 7.38965 4.45508L8.28809 1.7627C8.41907 1.36974 8.84435 1.1571 9.2373 1.28809C9.63026 1.41907 9.8429 1.84435 9.71191 2.2373L9.06348 4.18066C10.0361 4.05832 11.0169 3.99718 12 4C12.8356 3.9976 13.6694 4.04274 14.498 4.13086L15.2881 1.7627ZM7.80469 15.0195C7.61081 15.0582 7.43275 15.1532 7.29297 15.293C7.15318 15.4328 7.05815 15.6108 7.01953 15.8047C6.98095 15.9987 7.00048 16.2001 7.07617 16.3828C7.15183 16.5654 7.28005 16.7212 7.44434 16.8311C7.60879 16.9409 7.80222 17 8 17C8.26521 17 8.5195 16.8946 8.70703 16.707C8.89456 16.5195 8.99999 16.2652 9 16C9 15.8022 8.94094 15.6088 8.83105 15.4443C8.72121 15.28 8.56539 15.1518 8.38281 15.0762C8.20009 15.0005 7.99867 14.9809 7.80469 15.0195ZM15.8047 15.0195C15.6108 15.0582 15.4328 15.1532 15.293 15.293C15.1532 15.4328 15.0581 15.6108 15.0195 15.8047C14.9809 15.9987 15.0005 16.2001 15.0762 16.3828C15.1518 16.5654 15.28 16.7212 15.4443 16.8311C15.6088 16.9409 15.8022 17 16 17C16.2652 17 16.5195 16.8946 16.707 16.707C16.8946 16.5195 17 16.2652 17 16C17 15.8022 16.9409 15.6088 16.8311 15.4443C16.7212 15.28 16.5654 15.1518 16.3828 15.0762C16.2001 15.0005 15.9987 14.9809 15.8047 15.0195ZM7 12C7.00001 12.2652 7.10544 12.5195 7.29297 12.707C7.4805 12.8946 7.73479 13 8 13H16C16.2652 13 16.5195 12.8946 16.707 12.707C16.8946 12.5195 17 12.2652 17 12V8H7V12ZM10 7H14V6H10V7Z" fill="#A92418"/>
</svg>
