<svg width="64" height="64" viewBox="0 0 64 64" fill="none" xmlns="http://www.w3.org/2000/svg">
<rect x="18" y="10" width="28" height="44" rx="4" stroke="#343D4F" stroke-width="4"/>
<circle cx="44" cy="36" r="10" fill="#D9D9D9"/>
<path d="M45 37H43V31H45M45 41H43V39H45M44 26C42.6868 26 41.3864 26.2587 40.1732 26.7612C38.9599 27.2638 37.8575 28.0003 36.9289 28.9289C35.0536 30.8043 34 33.3478 34 36C34 38.6522 35.0536 41.1957 36.9289 43.0711C37.8575 43.9997 38.9599 44.7362 40.1732 45.2388C41.3864 45.7413 42.6868 46 44 46C46.6522 46 49.1957 44.9464 51.0711 43.0711C52.9464 41.1957 54 38.6522 54 36C54 34.6868 53.7413 33.3864 53.2388 32.1732C52.7362 30.9599 51.9997 29.8575 51.0711 28.9289C50.1425 28.0003 49.0401 27.2638 47.8268 26.7612C46.6136 26.2587 45.3132 26 44 26Z" fill="#D24327"/>
</svg>
