<svg width="64" height="64" viewBox="0 0 64 64" fill="none" xmlns="http://www.w3.org/2000/svg">
<rect x="18" y="10" width="28" height="44" rx="4" stroke="#343D4F" stroke-width="4"/>
<path d="M41.5 27C43.2239 27 44.8772 27.6848 46.0962 28.9038C47.3152 30.1228 48 31.7761 48 33.5C48 35.11 47.41 36.59 46.44 37.73L46.71 38H47.5L52.5 43L51 44.5L46 39.5V38.71L45.73 38.44C44.59 39.41 43.11 40 41.5 40C39.7761 40 38.1228 39.3152 36.9038 38.0962C35.6848 36.8772 35 35.2239 35 33.5C35 31.7761 35.6848 30.1228 36.9038 28.9038C38.1228 27.6848 39.7761 27 41.5 27ZM41.5 29C39 29 37 31 37 33.5C37 36 39 38 41.5 38C44 38 46 36 46 33.5C46 31 44 29 41.5 29Z" fill="#41A69C"/>
</svg>
