<svg width="64" height="64" viewBox="0 0 64 64" fill="none" xmlns="http://www.w3.org/2000/svg">
<rect x="18" y="10" width="28" height="44" rx="4" stroke="#343D4F" stroke-width="4"/>
<path d="M44 39.5C43.0717 39.5 42.1815 39.1313 41.5251 38.4749C40.8687 37.8185 40.5 36.9283 40.5 36C40.5 35.0717 40.8687 34.1815 41.5251 33.5251C42.1815 32.8687 43.0717 32.5 44 32.5C44.9283 32.5 45.8185 32.8687 46.4749 33.5251C47.1312 34.1815 47.5 35.0717 47.5 36C47.5 36.9283 47.1312 37.8185 46.4749 38.4749C45.8185 39.1313 44.9283 39.5 44 39.5ZM51.43 36.97C51.47 36.65 51.5 36.33 51.5 36C51.5 35.67 51.47 35.34 51.43 35L53.54 33.37C53.73 33.22 53.78 32.95 53.66 32.73L51.66 29.27C51.54 29.05 51.27 28.96 51.05 29.05L48.56 30.05C48.04 29.66 47.5 29.32 46.87 29.07L46.5 26.42C46.46 26.18 46.25 26 46 26H42C41.75 26 41.54 26.18 41.5 26.42L41.13 29.07C40.5 29.32 39.96 29.66 39.44 30.05L36.95 29.05C36.73 28.96 36.46 29.05 36.34 29.27L34.34 32.73C34.21 32.95 34.27 33.22 34.46 33.37L36.57 35C36.53 35.34 36.5 35.67 36.5 36C36.5 36.33 36.53 36.65 36.57 36.97L34.46 38.63C34.27 38.78 34.21 39.05 34.34 39.27L36.34 42.73C36.46 42.95 36.73 43.03 36.95 42.95L39.44 41.94C39.96 42.34 40.5 42.68 41.13 42.93L41.5 45.58C41.54 45.82 41.75 46 42 46H46C46.25 46 46.46 45.82 46.5 45.58L46.87 42.93C47.5 42.67 48.04 42.34 48.56 41.94L51.05 42.95C51.27 43.03 51.54 42.95 51.66 42.73L53.66 39.27C53.78 39.05 53.73 38.78 53.54 38.63L51.43 36.97Z" fill="#D24327"/>
</svg>
